<svg width="20" height="18" viewBox="0 0 20 18" fill="none" xmlns="http://www.w3.org/2000/svg">
<path d="M19.1875 0.75H0.8125C0.709375 0.75 0.625 0.834375 0.625 0.9375V2.4375C0.625 2.54063 0.709375 2.625 0.8125 2.625H19.1875C19.2906 2.625 19.375 2.54063 19.375 2.4375V0.9375C19.375 0.834375 19.2906 0.75 19.1875 0.75ZM19.1875 15.375H0.8125C0.709375 15.375 0.625 15.4594 0.625 15.5625V17.0625C0.625 17.1656 0.709375 17.25 0.8125 17.25H19.1875C19.2906 17.25 19.375 17.1656 19.375 17.0625V15.5625C19.375 15.4594 19.2906 15.375 19.1875 15.375ZM19.1875 8.0625H0.8125C0.709375 8.0625 0.625 8.14687 0.625 8.25V9.75C0.625 9.85313 0.709375 9.9375 0.8125 9.9375H19.1875C19.2906 9.9375 19.375 9.85313 19.375 9.75V8.25C19.375 8.14687 19.2906 8.0625 19.1875 8.0625Z" fill="black"/>
</svg>
